<?xml version="1.0" encoding="utf-8"?>
<!-- Generator: Adobe Illustrator 24.1.0, SVG Export Plug-In . SVG Version: 6.00 Build 0)  -->
<svg version="1.1" id="Layer_1" xmlns="http://www.w3.org/2000/svg" xmlns:xlink="http://www.w3.org/1999/xlink" x="0px" y="0px"
	 viewBox="0 0 98.9 75" style="enable-background:new 0 0 98.9 75;" xml:space="preserve">
<style type="text/css">
	.st0{fill:#999999;}
	.st1{fill:#737373;}
	.st2{fill:#262626;}
	.st3{fill:#F9E70D;}
	.st4{fill:#5B5B5B;}
</style>
<rect x="36" y="60.8" class="st0" width="26.9" height="11.1"/>
<rect x="36" y="62.5" class="st1" width="26.9" height="9.5"/>
<path d="M96.3,8.6v43.1H2.6V8.6c0-2.8,2-5.1,4.4-5.1h84.8C94.3,3.5,96.3,5.8,96.3,8.6z"/>
<path class="st2" d="M92.7,46.6H6.2V10.4c0-1.7,1.4-3.1,3.1-3.1h80.3c1.7,0,3.1,1.4,3.1,3.1V46.6z"/>
<path class="st0" d="M96.3,51.7v7.4c0,1.9-2,3.4-4.4,3.4H7.1c-2.4,0-4.4-1.5-4.4-3.4v-7.4H96.3z"/>
<rect x="33.3" y="71.9" class="st0" width="32.4" height="1.7"/>
<rect x="10.3" y="15.2" class="st3" width="78.4" height="1.2"/>
<rect x="10.3" y="22.1" class="st3" width="23.4" height="1.2"/>
<rect x="46.1" y="17.5" class="st3" width="31" height="1.2"/>
<rect x="10.3" y="19.8" class="st3" width="78.4" height="1.2"/>
<rect x="34.5" y="22.1" class="st3" width="23.4" height="1.2"/>
<rect x="10.3" y="17.5" class="st3" width="35.1" height="1.2"/>
<rect x="10.3" y="24.4" class="st3" width="78.4" height="1.2"/>
<rect x="10.3" y="31.2" class="st3" width="23.4" height="1.2"/>
<rect x="46.1" y="26.6" class="st3" width="31" height="1.2"/>
<rect x="10.3" y="28.9" class="st3" width="78.4" height="1.2"/>
<rect x="34.5" y="31.2" class="st3" width="23.4" height="1.2"/>
<rect x="10.3" y="26.6" class="st3" width="35.1" height="1.2"/>
<rect x="10.3" y="33.4" class="st3" width="70" height="1.2"/>
<rect x="10.3" y="40.2" class="st3" width="37.1" height="1.2"/>
<rect x="42.3" y="35.7" class="st3" width="27.7" height="1.2"/>
<rect x="10.3" y="38" class="st3" width="70" height="1.2"/>
<rect x="10.3" y="35.7" class="st3" width="31.3" height="1.2"/>
<rect x="10.3" y="42.3" class="st3" width="0.7" height="2.5"/>
<rect x="36" y="62.5" class="st4" width="26.9" height="2.6"/>
<circle cx="49.5" cy="57.1" r="2.4"/>
</svg>
