<?xml version="1.0" encoding="utf-8"?>
<!-- Generator: Adobe Illustrator 24.1.0, SVG Export Plug-In . SVG Version: 6.00 Build 0)  -->
<svg version="1.1" id="Layer_1" xmlns="http://www.w3.org/2000/svg" xmlns:xlink="http://www.w3.org/1999/xlink" x="0px" y="0px"
	 viewBox="0 0 98.9 75" style="enable-background:new 0 0 98.9 75;" xml:space="preserve">
<style type="text/css">
	.st0{fill:#F9E70D;}
	.st1{fill:#FFFFFF;}
	.st2{fill:none;stroke:#000000;stroke-width:0.5;stroke-miterlimit:10;}
	.st3{fill:#999999;}
	.st4{fill:#404040;}
	.st5{fill:#FFFFFF;stroke:#000000;stroke-width:0.5;stroke-miterlimit:10;}
</style>
<path class="st0" d="M67.6,5.6c-0.7,0.1-17.7-1-24.3-0.6C38.3,5.2,22.5,6.4,19,6.3C15.4,6.2,5,9.2,3.3,12.2
	c-2.7,4.7-1.8,8.3-0.5,20.1S1.1,51.1,2,53.9c0.9,2.8,2.9,16.9,18.6,17.2c15.6,0.4,58.7-1.8,66.5,0c7.8,1.8,9.9-12.5,10-18.1
	c0.2-9.8,0.2-11.9-1-18.8c-1.1-6.6,3.6-26.1-4.7-28.6C88.9,5,71.9,5.1,67.6,5.6z"/>
<g>
	<g>
		<polygon class="st1" points="7.7,61.3 48.1,31 96.1,52.3 		"/>
		<g>
			
				<rect x="5.1" y="10.1" transform="matrix(0.9949 -0.1012 0.1012 0.9949 -3.1343 5.1847)" class="st2" width="88.8" height="46.8"/>
			<polygon class="st3" points="3,14.7 49.1,33.5 7.7,61.3 			"/>
			<polygon class="st3" points="49.5,33.5 91.3,5.7 96.1,52.3 			"/>
			<line class="st2" x1="3" y1="14.7" x2="7.7" y2="61.3"/>
			<line class="st2" x1="96.1" y1="52.3" x2="91.3" y2="5.7"/>
			<polygon class="st4" points="49.8,40.4 91.3,5.7 3,14.7 			"/>
			<path class="st5" d="M49.5,37.2l42-31.5c0.1-0.1,0-0.3-0.1-0.2L3,14.4c-0.2,0-0.2,0.2-0.1,0.3L49.5,37.2z"/>
		</g>
	</g>
	<g>
		<polygon class="st1" points="5.1,62 48.5,36.3 93.9,62.7 		"/>
		<g>
			
				<rect x="5.3" y="15.5" transform="matrix(1 8.388607e-03 -8.388607e-03 1 0.3283 -0.4156)" class="st2" width="88.8" height="46.8"/>
			<polygon class="st3" points="5.5,15.1 49.3,38.9 5.1,62 			"/>
			<polygon class="st3" points="49.7,38.9 94.3,15.9 93.9,62.7 			"/>
			<line class="st2" x1="5.5" y1="15.1" x2="5.1" y2="62"/>
			<line class="st2" x1="93.9" y1="62.7" x2="94.3" y2="15.9"/>
			<polygon class="st4" points="49.3,45.8 94.3,15.9 5.5,15.1 			"/>
			<path class="st5" d="M49.2,42.7l45.5-26.5c0.1-0.1,0.1-0.2-0.1-0.2L5.3,14.7c-0.1,0-0.1,0.1-0.1,0.2L49.2,42.7z"/>
		</g>
	</g>
	<g>
		<polygon class="st1" points="3.3,67.9 47.9,44.3 92,72.8 		"/>
		<g>
			
				<rect x="4.6" y="23.6" transform="matrix(0.9985 5.521031e-02 -5.521031e-02 0.9985 2.669 -2.6317)" class="st2" width="88.8" height="46.8"/>
			<polygon class="st3" points="5.9,21.2 48.5,47 3.3,67.9 			"/>
			<polygon class="st3" points="49,47 94.6,26.1 92,72.8 			"/>
			<line class="st2" x1="5.9" y1="21.2" x2="3.3" y2="67.9"/>
			<line class="st2" x1="92" y1="72.8" x2="94.6" y2="26.1"/>
			<polygon class="st4" points="48.2,53.9 94.6,26.1 5.9,21.2 			"/>
			<path class="st5" d="M48.3,50.7l46.4-24.4c0.2-0.1,0.1-0.4-0.1-0.4L6.2,20.8C6,20.8,5.9,21,6,21.2L48.3,50.7z"/>
		</g>
	</g>
</g>
<g>
	<path class="st3" d="M-39.2,86.8"/>
	<path class="st2" d="M-39.2,86.8"/>
</g>
</svg>
