<?xml version="1.0" encoding="utf-8"?>
<!-- Generator: Adobe Illustrator 24.1.0, SVG Export Plug-In . SVG Version: 6.00 Build 0)  -->
<svg version="1.1" id="Layer_1" xmlns="http://www.w3.org/2000/svg" xmlns:xlink="http://www.w3.org/1999/xlink" x="0px" y="0px"
	 viewBox="0 0 98.9 75" style="enable-background:new 0 0 98.9 75;" xml:space="preserve">
<style type="text/css">
	.st0{fill:#999999;stroke:#000000;stroke-width:0.5;stroke-miterlimit:10;}
	.st1{fill:#FFFFFF;}
	.st2{fill:#999999;}
	.st3{fill:#F9E70D;}
	.st4{fill:#FCFCFC;stroke:#000000;stroke-width:0.5;stroke-miterlimit:10;}
</style>
<path class="st0" d="M95.8,2H3.2c-1.1,0-2,0.9-2,2.1v7.8h96.6V4.1C97.8,2.9,96.9,2,95.8,2z M8.2,8.8c-0.8,0-1.5-0.7-1.5-1.6
	c0-0.9,0.7-1.6,1.5-1.6s1.5,0.7,1.5,1.6C9.7,8.1,9,8.8,8.2,8.8z M15.2,8.8c-0.8,0-1.5-0.7-1.5-1.6c0-0.9,0.7-1.6,1.5-1.6
	c0.8,0,1.5,0.7,1.5,1.6C16.7,8.1,16,8.8,15.2,8.8z M22.1,8.8c-0.8,0-1.5-0.7-1.5-1.6c0-0.9,0.7-1.6,1.5-1.6c0.8,0,1.5,0.7,1.5,1.6
	C23.6,8.1,23,8.8,22.1,8.8z"/>
<g>
	<rect x="1.2" y="11.8" class="st1" width="96.5" height="58"/>
	<path d="M97.5,12v57.5h-96V12H97.5 M98,11.5H1V70h97V11.5L98,11.5z"/>
</g>
<rect x="9.5" y="20.5" class="st2" width="33" height="2.5"/>
<rect x="9.5" y="16.5" class="st3" width="33" height="2.5"/>
<rect x="9.5" y="24.5" class="st2" width="33" height="2.5"/>
<rect x="9.5" y="28.5" class="st2" width="33" height="2.5"/>
<rect x="9.5" y="32.5" class="st2" width="33" height="2.5"/>
<rect x="9.5" y="36.5" class="st2" width="22.5" height="2.5"/>
<rect x="45.8" y="20.3" class="st2" width="44" height="13"/>
<rect x="46" y="39" class="st2" width="44" height="27"/>
<rect x="9.3" y="45.6" class="st2" width="33" height="2.5"/>
<rect x="9.3" y="41.6" class="st3" width="33" height="2.5"/>
<rect x="9.3" y="49.6" class="st2" width="33" height="2.5"/>
<rect x="9.3" y="53.6" class="st2" width="33" height="2.5"/>
<rect x="9.3" y="57.6" class="st2" width="33" height="2.5"/>
<rect x="9.3" y="61.6" class="st2" width="22.5" height="2.5"/>
<rect x="45.8" y="16.6" class="st3" width="44" height="2.5"/>
<rect x="45.8" y="34.8" class="st3" width="44" height="2.5"/>
<polygon class="st4" points="91.4,22.7 88.8,23.6 90.2,25.6 88.7,26.7 87.2,24.8 85.7,27.1 83.8,18.9 "/>
</svg>
