<?xml version="1.0" encoding="utf-8"?>
<!-- Generator: Adobe Illustrator 24.1.0, SVG Export Plug-In . SVG Version: 6.00 Build 0)  -->
<svg version="1.1" id="Layer_1" xmlns="http://www.w3.org/2000/svg" xmlns:xlink="http://www.w3.org/1999/xlink" x="0px" y="0px"
	 viewBox="0 0 1366 768" style="enable-background:new 0 0 1366 768;" xml:space="preserve">
<style type="text/css">
	.st0{fill:none;stroke:#000000;}
</style>
<path class="st0" d="M540.7,359.2h24.8c16.8,0,28.4,9.6,28.4,25.2s-11.6,25.2-28.4,25.2h-24.8V359.2z M564.8,396.3
	c7.1,0,12-4.2,12-12s-4.9-12-12-12h-7.1v23.9H564.8z M642,396.8v12.8h-41.9v-50.4h41V372h-24.3v5.9h21.3v12.2h-21.3v6.6H642z
	 M645.4,405.6l5.5-12.4c4.8,2.8,11.1,4.6,16.6,4.6c4.8,0,6.6-1,6.6-2.7c0-6.3-27.9-1.2-27.9-20c0-9.4,7.8-17,23.5-17
	c6.8,0,13.8,1.4,19,4.4l-5.1,12.3c-5-2.5-9.6-3.7-14-3.7c-5,0-6.6,1.4-6.6,3.2c0,6,27.9,1,27.9,19.6c0,9.2-7.8,17-23.5,17
	C658.9,410.7,650.5,408.7,645.4,405.6z M695.9,359.2h17v50.4h-17V359.2z M754.4,383h14.8v21.3c-6.1,4.2-14.5,6.4-22,6.4
	c-16.3,0-28.2-10.9-28.2-26.4s11.9-26.4,28.5-26.4c9.9,0,17.9,3.5,23,9.7l-10.9,9.6c-3.2-3.7-6.8-5.5-11.3-5.5
	c-7.5,0-12.2,4.8-12.2,12.6c0,7.6,4.8,12.6,12,12.6c2.1,0,4.1-0.4,6.2-1.2V383z M826.1,359.2v50.4h-14L793,386.7v22.9h-16.6v-50.4
	h14l19.2,22.9v-22.9H826.1z"/>
</svg>
