<?xml version="1.0" encoding="utf-8"?>
<!-- Generator: Adobe Illustrator 24.1.0, SVG Export Plug-In . SVG Version: 6.00 Build 0)  -->
<svg version="1.1" id="Layer_1" xmlns="http://www.w3.org/2000/svg" xmlns:xlink="http://www.w3.org/1999/xlink" x="0px" y="0px"
	 viewBox="0 0 1366 768" style="enable-background:new 0 0 1366 768;" xml:space="preserve">
<style type="text/css">
	.st0{fill:none;stroke:#000000;}
</style>
<path class="st0" d="M176.3,259.2h24.8c16.8,0,28.4,9.6,28.4,25.2s-11.6,25.2-28.4,25.2h-24.8V259.2z M200.4,296.4
	c7.1,0,12-4.2,12-12s-4.9-12-12-12h-7.1v23.9H200.4z M277.7,296.8v12.8h-41.9v-50.4h41V272h-24.3v5.9h21.3v12.2h-21.3v6.6H277.7z
	 M337.4,259.2l-21.3,50.4h-16.7L278,259.2h18.3l12,29.5l12.3-29.5H337.4z M380.9,296.8v12.8H339v-50.4h41V272h-24.3v5.9h21.3v12.2
	h-21.3v6.6H380.9z M387.5,259.2h17v37.2h22.8v13.2h-39.7V259.2z M429.2,284.4c0-15.3,12-26.4,28.4-26.4s28.4,11.1,28.4,26.4
	s-12,26.4-28.4,26.4S429.2,299.7,429.2,284.4z M468.9,284.4c0-7.8-5-12.6-11.3-12.6s-11.3,4.8-11.3,12.6s5,12.6,11.3,12.6
	S468.9,292.3,468.9,284.4z M539.5,278.2c0,11.7-8.9,19-23,19h-7.3v12.4h-17v-50.4h24.3C530.6,259.2,539.5,266.6,539.5,278.2z
	 M522.3,278.2c0-3.7-2.2-5.9-6.9-5.9h-6.2v11.8h6.2C520.1,284.1,522.3,281.9,522.3,278.2z M590,309.6l-0.1-23l-10.9,18.4h-7.5
	l-10.9-17.6v22.2H545v-50.4h14l16.4,26.9l16-26.9h14l0.1,50.4H590z M655.6,296.8v12.8h-41.9v-50.4h41V272h-24.3v5.9h21.3v12.2h-21.3
	v6.6H655.6z M711.9,259.2v50.4h-14l-19.2-22.9v22.9h-16.6v-50.4h14l19.2,22.9v-22.9H711.9z M731,272.4h-14.8v-13.2h46.5v13.2H748
	v37.2h-17V272.4z"/>
</svg>
