<?xml version="1.0" encoding="utf-8"?>
<!-- Generator: Adobe Illustrator 24.1.0, SVG Export Plug-In . SVG Version: 6.00 Build 0)  -->
<svg version="1.1" id="Ebene_1" xmlns="http://www.w3.org/2000/svg" xmlns:xlink="http://www.w3.org/1999/xlink" x="0px" y="0px"
	 viewBox="0 0 1440 650.7" style="enable-background:new 0 0 1440 650.7;" xml:space="preserve">
<g>
	<path d="M0,641.3V632l1-0.2c1-0.2,218.2-45.3,219.7-45.6c0.5-0.1,8.1-5.1,22.2-14.4l21.5-14.3l175.4-109
		c96.5-59.9,175.6-108.9,175.7-108.9c0.2,0,9.7,6.4,21.2,14.3l20.9,14.2L829.1,451c94.3,45.6,171.6,82.9,171.8,82.9
		c0.7,0.1,27.6-18.6,119.3-82.6c80.7-56.3,97.7-68.1,98.1-68c0.3,0.1,22.2,3,48.7,6.6l48.2,6.5l62.1,5.7c34.2,3.2,62.2,5.7,62.3,5.7
		c0.1,0,0.2,1.4,0.2,3.4v3.4l-0.7-0.1c-1.3-0.1-214.6-19.7-215.1-19.7c-0.3,0-38.1,26.3-107.6,74.8
		c-58.9,41.1-107.2,74.8-107.3,74.7c-0.1,0-86.9-42-192.9-93.4s-192.9-93.4-193-93.4s-89.4,55.4-198.3,123.1L227,603.8l-112.9,23.3
		C52.1,640,1,650.6,0.7,650.6L0,650.7V641.3z M0.1,604v-9.2l105-22l105-22l64.5-42.8l64.5-42.8l260.1-161.5l6.1,4.2
		c3.4,2.3,31.9,21.5,63.4,42.7l57.2,38.6L855,451.4l129.1,62.1l6.6-4.6c3.6-2.5,21.3-14.6,39.3-26.8c23-15.7,53.8-37,103.9-72
		c39.2-27.4,71.4-49.7,71.6-49.7c0.3-0.1,232.8,32.1,234,32.4c0.4,0.1,0.4,0.4,0.4,4.3c0,4.2,0,4.2-0.5,4.2c-0.3,0-8.5-0.8-18.3-1.7
		l-17.8-1.7l-95.6-13.1c-52.6-7.2-95.8-13-96-13s-36.8,25.5-81.4,56.7c-57.2,40-89.4,62.3-109.3,75.9
		c-15.5,10.6-28.4,19.3-28.6,19.2c-0.2,0-67.9-32.6-150.4-72.4l-150.1-72.5L649.6,350c-42.1-28.5-42.3-28.6-42.8-28.3
		c-0.3,0.1-68.9,42.8-152.5,94.7l-152,94.4L260.1,539c-23.2,15.4-42.7,28.3-43.4,28.7l-1.1,0.7l-107.4,22.4
		C49.2,603,0.6,613.2,0.4,613.2C0,613.3,0,612.8,0.1,604L0.1,604z M0,567.3v-9.1l98.2-20.6c54-11.4,98.9-20.9,99.7-21
		c1.5-0.3,2.9-1.3,107.2-70.5l105.7-70.2l86.2-53.5c47.4-29.4,86.4-53.5,86.5-53.5c0.2,0,47.9,31.9,106.2,70.9l105.9,70.9l86.1,41.2
		c47.3,22.7,86.1,41.2,86.2,41.1c0.1,0,30.3-20.6,67-45.9c42.5-29.1,83.5-57.5,112.6-77.8c25.2-17.6,45.9-31.9,46.1-31.9
		s55.6,7.8,123.1,17.5c67.6,9.6,122.9,17.5,123,17.5s0.2,2.1,0.2,5.1c0,4.8,0,5.1-0.4,5c-0.2-0.1-8.9-1.3-19.4-2.8
		c-10.4-1.5-24.1-3.4-30.4-4.2c-121.1-17-190.2-26.7-190.3-26.7c-0.1,0-24.8,17.2-54.9,38.2c-66.1,46.1-65.8,45.9-122.9,85
		L976,503.2l-2.6-1.2c-212.6-102-211.7-101.6-214.1-103.2c-1.3-0.8-39.6-26.5-85.1-57.2C628.7,311,591.4,286,591.3,286
		c-0.1,0-48.8,30.3-108.3,67.2l-108.1,67.1l-84.1,55.8c-46.3,30.7-84.6,56.1-85.2,56.5l-1.1,0.7l-101.9,21.4
		c-56,11.8-102.1,21.4-102.3,21.5C0,576.4,0,575.9,0,567.3L0,567.3z M0,522.9c0-17,0-17,0.5-17c0.3,0,11.9,1.1,25.9,2.4
		s25.7,2.4,26.1,2.4s30.9-6.4,68.2-14.3l67.5-14.3l147.1-97.5l147.1-97.5l42.7-26.5c23.5-14.5,42.8-26.5,43-26.5
		c0.2,0.1,67.1,44.6,148.7,99.1c81.7,54.4,148.9,99.2,149.5,99.5c0.6,0.3,20,9.6,43.1,20.6l42.1,20.1l3.8-2.6
		c40.6-27.8,172-118.4,195-134.4l31-21.5l82.8,12.1c45.5,6.7,103.7,15.1,129.3,18.8l46.5,6.8v4.9c0,2.7,0,4.9-0.1,4.9
		c0,0-45.3-6.5-100.6-14.5c-55.3-8-111.9-16.1-125.9-18.1c-13.9-2-25.6-3.7-25.8-3.7c-0.3,0-13.4,9-32.7,22.5
		c-26.7,18.6-194.5,134.2-195.1,134.4c-0.1,0-29.2-13.9-64.7-30.8l-64.5-30.8l-127.3-84.9c-70-46.8-127.4-85.1-127.5-85.1
		s-29.1,17.9-64.3,39.8l-64.1,39.8l-125,82.9c-68.7,45.6-125.7,83.5-126.7,84.1l-1.8,1.2L97,519.5c-53.2,11.2-96.8,20.4-96.9,20.4
		C0.1,539.9,0,532.3,0,522.9L0,522.9z M57.2,474.2L0,468.9v-18.2c0-16.8,0-18.2,0.4-18.2c0.2,0,40,3.6,88.3,8
		c48.4,4.4,88.2,8,88.5,8c0.4,0,45.9-30,188.1-124.3l187.5-124.3l2.3,1.5c22.1,14.8,380.6,252.3,380.8,252.3s52.7-36.2,116.8-80.6
		c64.1-44.3,116.6-80.6,116.8-80.6c0.1,0,61.1,9,135.4,20.1l135.1,20.2v4.8c0,2.7-0.1,4.8-0.2,4.8s-59.6-8.8-132.3-19.5l-132.1-19.5
		l-19.7,13.7c-40.3,28-211.9,146.2-212.1,146.2c-0.2-0.1-9.9-4.6-21.6-10.3l-21.4-10.2l-170-113C637.1,267.8,560.5,217,560.3,217
		c-0.2,0-9.7,5.9-21.3,13l-21,13l-167.5,111L183,465.3l-33.7,7.2c-18.6,3.9-34,7.2-34.3,7.2C114.6,479.6,88.6,477.2,57.2,474.2
		L57.2,474.2z"/>
</g>
</svg>
