<?xml version="1.0" encoding="utf-8"?>
<!-- Generator: Adobe Illustrator 24.1.0, SVG Export Plug-In . SVG Version: 6.00 Build 0)  -->
<svg version="1.1" id="Layer_1" xmlns="http://www.w3.org/2000/svg" xmlns:xlink="http://www.w3.org/1999/xlink" x="0px" y="0px"
	 viewBox="0 0 176 173" style="enable-background:new 0 0 176 173;" xml:space="preserve">
<style type="text/css">
	.st0{fill:#FFFFFF;}
</style>
<path class="st0" d="M157.1,141.4c0,4.9-1.7,9-5.2,12.4c-3.5,3.4-7.6,5.1-12.4,5.1c-4.9,0-9-1.8-12.4-5.3c-3.4-3.5-5-7.6-5-12.3
	c0-4.8,1.7-8.9,5.1-12.3c3.4-3.4,7.5-5.1,12.3-5.1c4.9,0,9,1.7,12.5,5.1C155.4,132.5,157.1,136.6,157.1,141.4z"/>
<path class="st0" d="M131.5,35.3c0,3.2-1.1,5.9-3.2,8.1c-2.1,2.3-4.7,3.4-7.7,3.4c-5.4,0-9.5-4-12.4-12c-2-5.4-4.9-8.1-8.8-8.1
	c-4.7,0-10.2,3.2-16.8,9.5C76.2,42.6,72,49.2,70.2,56c-1.8,6.8-2.8,16.2-2.8,28.1v23.8c0,14.2,0.2,23.2,0.6,26.9
	c0.4,3.7,1.9,6.5,4.6,8.5c2.7,2,7.5,2.9,14.5,2.9h4.5v7.5H20.9v-7.5h3.4c6.5,0,11.1-0.9,13.9-2.7c2.8-1.8,4.4-4.3,5-7.6
	c0.5-3.2,0.8-12.6,0.8-28V70.3C44,56,43.8,47,43.5,43.4c-0.4-3.6-1.9-6.4-4.6-8.5c-2.7-2-7.5-3-14.5-3h-3.4v-7.3
	c10.2-1.2,23.5-4.4,40-9.6c3.1,8.6,4.9,19.9,5.2,34c3.7-9.7,9.7-17.7,18-24.2c8.3-6.5,16.4-9.8,24.3-9.8c7.2,0,12.8,2.2,16.9,6.7
	C129.5,26.1,131.5,30.7,131.5,35.3z"/>
</svg>
