<?xml version="1.0" encoding="utf-8"?>
<!-- Generator: Adobe Illustrator 24.1.0, SVG Export Plug-In . SVG Version: 6.00 Build 0)  -->
<svg version="1.1" id="Layer_1" xmlns="http://www.w3.org/2000/svg" xmlns:xlink="http://www.w3.org/1999/xlink" x="0px" y="0px"
	 viewBox="0 0 446 44" style="enable-background:new 0 0 446 44;" xml:space="preserve">
<style type="text/css">
	.st0{fill:#F9E70D;}
</style>
<g>
	<path class="st0" d="M11,37V6.4h8.8c6.5,0,9.7,3,9.7,9c0,1.8-0.3,3.3-1,4.6c-0.7,1.3-1.9,2.3-3.7,3.1l5.9,14h-5.8l-5.1-13.1h-3.3
		V37H11z M16.5,10.5v9.5h3.1c1,0,1.7-0.1,2.3-0.3c0.6-0.2,1-0.5,1.3-0.9c0.3-0.4,0.5-0.9,0.6-1.5c0.1-0.6,0.2-1.3,0.2-2
		s-0.1-1.5-0.2-2c-0.1-0.6-0.3-1.1-0.6-1.5c-0.7-0.8-2-1.2-3.9-1.2H16.5z"/>
	<path class="st0" d="M44.7,37V6.4H61v4.1H50.1v9h9.5v4.1h-9.5v9H61V37H44.7z"/>
	<path class="st0" d="M75.1,37V6.4h5.3l8.3,18.4h0.1V6.4h5.5V37h-5.2l-8.4-18.4h-0.1V37H75.1z"/>
	<path class="st0" d="M109.9,37V6.4h16.3v4.1h-10.9v9h9.5v4.1h-9.5v9h10.9V37H109.9z"/>
	<path class="st0" d="M161.3,37V6.4h8c1.8,0,3.3,0.2,4.5,0.6c1.2,0.4,2.2,1,3,1.7c0.8,0.7,1.4,1.5,1.7,2.5s0.5,1.9,0.5,2.9v1.1
		c0,0.8-0.1,1.5-0.2,2.1c-0.2,0.6-0.4,1.1-0.7,1.5c-0.6,0.8-1.5,1.5-2.8,2.1c1.3,0.5,2.2,1.2,2.8,2.1c0.6,0.9,0.9,2.2,0.9,3.9v1.7
		c0,2.7-0.8,4.8-2.4,6.2c-1.6,1.4-4.2,2.1-7.8,2.1H161.3z M166.8,10.5v8.4h2.5c1.8,0,3.1-0.4,3.7-1.1c0.6-0.7,0.9-1.8,0.9-3.2
		c0-1.4-0.3-2.4-1-3.1s-2-1-3.8-1H166.8z M166.8,22.8v9.8h2.4c1.1,0,2-0.1,2.6-0.4s1.1-0.6,1.4-1.1c0.3-0.5,0.5-1,0.6-1.6
		c0.1-0.6,0.1-1.3,0.1-2.1c0-0.8-0.1-1.4-0.2-2c-0.1-0.6-0.3-1.1-0.6-1.5c-0.4-0.4-0.8-0.7-1.5-0.9c-0.6-0.2-1.4-0.3-2.4-0.3H166.8z
		"/>
	<path class="st0" d="M194.9,37V6.4h8.8c6.5,0,9.7,3,9.7,9c0,1.8-0.3,3.3-1,4.6c-0.7,1.3-1.9,2.3-3.7,3.1l5.9,14h-5.8l-5.1-13.1
		h-3.3V37H194.9z M200.4,10.5v9.5h3.1c1,0,1.7-0.1,2.3-0.3c0.6-0.2,1-0.5,1.3-0.9c0.3-0.4,0.5-0.9,0.6-1.5c0.1-0.6,0.2-1.3,0.2-2
		s-0.1-1.5-0.2-2c-0.1-0.6-0.3-1.1-0.6-1.5c-0.7-0.8-2-1.2-3.9-1.2H200.4z"/>
	<path class="st0" d="M228.6,37V6.4h16.3v4.1h-10.9v9h9.5v4.1h-9.5v9h10.9V37H228.6z"/>
	<path class="st0" d="M277,15.2h-5.5v-1c0-1-0.3-1.9-0.9-2.6s-1.6-1.1-3-1.1c-0.8,0-1.4,0.1-1.8,0.3c-0.5,0.2-0.8,0.5-1.1,0.9
		c-0.3,0.4-0.5,0.8-0.6,1.3c-0.1,0.5-0.2,1-0.2,1.5c0,0.6,0,1.1,0.1,1.5c0.1,0.4,0.2,0.8,0.4,1.1c0.2,0.3,0.5,0.6,0.9,0.8
		s1,0.5,1.7,0.7l4.2,1.3c1.2,0.4,2.2,0.8,3,1.3c0.8,0.5,1.3,1.1,1.8,1.7c0.4,0.7,0.7,1.5,0.8,2.3c0.1,0.9,0.2,1.9,0.2,3
		c0,1.3-0.2,2.5-0.5,3.6c-0.3,1.1-0.8,2-1.6,2.8c-0.8,0.8-1.7,1.4-3,1.9c-1.2,0.5-2.7,0.7-4.5,0.7c-1.3,0-2.6-0.2-3.7-0.6
		c-1.1-0.4-2.1-0.9-3-1.5c-0.8-0.7-1.5-1.4-2-2.3c-0.5-0.9-0.7-1.8-0.7-2.9v-1.6h5.5v1.4c0,0.8,0.3,1.5,0.9,2.2c0.6,0.6,1.6,1,3,1
		c0.9,0,1.7-0.1,2.2-0.3c0.5-0.2,0.9-0.5,1.2-0.9c0.3-0.4,0.5-0.9,0.5-1.4c0.1-0.6,0.1-1.2,0.1-1.9c0-0.8,0-1.5-0.1-2
		c-0.1-0.5-0.2-0.9-0.4-1.2c-0.3-0.3-0.6-0.6-1-0.8c-0.4-0.2-1-0.4-1.6-0.6l-3.9-1.3c-2.4-0.8-4-1.8-4.8-3.1
		c-0.8-1.3-1.2-2.9-1.2-4.8c0-1.1,0.2-2.2,0.6-3.3c0.4-1,1-1.9,1.8-2.7c0.8-0.7,1.7-1.3,2.9-1.8c1.2-0.4,2.6-0.7,4.2-0.7
		c1.4,0,2.6,0.2,3.7,0.6c1.1,0.4,2.1,0.9,2.9,1.6c1.6,1.4,2.5,3,2.5,4.7V15.2z"/>
	<path class="st0" d="M291.8,37V6.4h5.5v26.2h10.9V37H291.8z"/>
	<path class="st0" d="M320,37l8.5-30.6h4.6l8.5,30.6h-5.5l-1.6-6.6h-7.5l-1.6,6.6H320z M333.5,26.3l-2.7-11.1h-0.1L328,26.3H333.5z"
		/>
	<path class="st0" d="M372.8,6.4v23.7c0,1-0.2,1.9-0.7,2.8c-0.4,0.8-1.1,1.6-1.9,2.3c-0.8,0.7-1.8,1.2-2.8,1.5
		c-1.1,0.4-2.2,0.6-3.4,0.6c-1.2,0-2.4-0.2-3.4-0.6c-1.1-0.4-2-0.9-2.8-1.5c-0.8-0.7-1.5-1.4-1.9-2.3c-0.5-0.8-0.7-1.8-0.7-2.8V6.4
		h5.5v23.3c0,1.1,0.3,1.9,1,2.4c0.6,0.5,1.5,0.8,2.4,0.8c1,0,1.8-0.3,2.4-0.8c0.6-0.5,1-1.3,1-2.4V6.4H372.8z"/>
	<path class="st0" d="M388.7,37V6.4h16.3v4.1h-10.9v9h9.5v4.1h-9.5v9h10.9V37H388.7z"/>
	<path class="st0" d="M419.4,37V6.4h8.8c6.5,0,9.7,3,9.7,9c0,1.8-0.3,3.3-1,4.6c-0.7,1.3-1.9,2.3-3.7,3.1l5.9,14h-5.8l-5.1-13.1
		h-3.3V37H419.4z M424.8,10.5v9.5h3.1c1,0,1.7-0.1,2.3-0.3c0.6-0.2,1-0.5,1.3-0.9c0.3-0.4,0.5-0.9,0.6-1.5c0.1-0.6,0.2-1.3,0.2-2
		s-0.1-1.5-0.2-2c-0.1-0.6-0.3-1.1-0.6-1.5c-0.7-0.8-2-1.2-3.9-1.2H424.8z"/>
</g>
</svg>
